{
  "source": "C:\\Users\\Peter\\Desktop\\stuff\\MIUN\\quantitative_research\\video_compression\\videos\\BVI-HD\\BVI-HD_CDVL_videos\\ORIG\\MartialArts_1920x1080_60fps.mp4",
  "output": "C:\\Users\\Peter\\Desktop\\stuff\\MIUN\\quantitative_research\\video_compression\\compressed_videos\\BVI-HD\\av1\\1\\MartialArts_1920x1080_60fps_av1.mkv",
  "codec": "av1",
  "ok": "Input #0, mov,mp4,m4a,3gp,3g2,mj2, from 'C:\\Users\\Peter\\Desktop\\stuff\\MIUN\\quantitative_research\\video_compression\\videos\\BVI-HD\\BVI-HD_CDVL_videos\\ORIG\\MartialArts_1920x1080_60fps.mp4':\n  Metadata:\n    major_brand     : isom\n    minor_version   : 512\n    compatible_brands: isomiso2avc1mp41\n    encoder         : Lavf54.28.101\n  Duration: 00:00:05.00, start: 0.000000, bitrate: 120609 kb/s\n  Stream #0:0[0x1](und): Video: h264 (High 4:4:4 Predictive) (avc1 / 0x31637661), yuv420p(progressive), 1920x1080, 120605 kb/s, 60 fps, 60 tbr, 60 tbn (default)\n    Metadata:\n      handler_name    : VideoHandler\n      vendor_id       : [0][0][0][0]\n[out#0/matroska @ 000001ff3f8997c0] Codec AVOption b:a (set bitrate (in bits/s)) has not been used for any stream. The most likely reason is either wrong type (e.g. a video option with no video streams) or that it is a private option of some decoder which was not actually used for any stream.\nStream mapping:\n  Stream #0:0 -> #0:0 (h264 (native) -> av1 (libsvtav1))\nPress [q] to stop, [?] for help\nSvt[info]: -------------------------------------------\nSvt[info]: SVT [version]:\tSVT-AV1 Encoder Lib v3.1.0-19-g6ecfe8ec\nSvt[info]: SVT [build]  :\tGCC 15.2.0\t 64 bit\nSvt[info]: LIB Build date: Aug 17 2025 11:37:13\nSvt[info]: -------------------------------------------\nSvt[info]: Level of Parallelism: 5\nSvt[info]: Number of PPCS 93\nSvt[info]: [asm level on system : up to avx2]\nSvt[info]: [asm level selected : up to avx2]\nSvt[info]: -------------------------------------------\nSvt[info]: SVT [config]: main profile\ttier (auto)\tlevel (auto)\nSvt[info]: SVT [config]: width / height / fps numerator / fps denominator \t\t: 1920 / 1080 / 60 / 1\nSvt[info]: SVT [config]: bit-depth / color format \t\t\t\t\t: 8 / YUV420\nSvt[info]: SVT [config]: preset / tune / pred struct \t\t\t\t\t: 4 / PSNR / random access\nSvt[info]: SVT [config]: gop size / mini-gop size / key-frame type \t\t\t: 321 / 16 / key frame\nSvt[info]: SVT [config]: BRC mode / target bitrate (kbps)\t\t\t\t: VBR / 1000 \nSvt[info]: SVT [config]: AQ mode / Variance Boost \t\t\t\t\t: 2 / 0\nSvt[info]: SVT [config]: sharpness / luminance-based QP bias \t\t\t\t: 0 / 0\nSvt[info]: SVT [config]: QP scale compress strength \t\t\t\t\t: 0\nSvt[info]: -------------------------------------------\nOutput #0, matroska, to 'C:\\Users\\Peter\\Desktop\\stuff\\MIUN\\quantitative_research\\video_compression\\compressed_videos\\BVI-HD\\av1\\1\\MartialArts_1920x1080_60fps_av1.mkv':\n  Metadata:\n    major_brand     : isom\n    minor_version   : 512\n    compatible_brands: isomiso2avc1mp41\n    encoder         : Lavf62.3.100\n  Stream #0:0(und): Video: av1 (AV01 / 0x31305641), yuv420p(tv, progressive), 1920x1080, q=2-31, 1000 kb/s, 60 fps, 1k tbn (default)\n    Metadata:\n      encoder         : Lavc62.11.100 libsvtav1\n      handler_name    : VideoHandler\n      vendor_id       : [0][0][0][0]\n    Side data:\n      cpb: bitrate max/min/avg: 0/0/1000000 buffer size: 1000000 vbv_delay: N/A\nframe=    0 fps=0.0 q=0.0 size=       0KiB time=N/A bitrate=N/A speed=N/A elapsed=0:00:01.02    \nframe=    0 fps=0.0 q=0.0 size=       0KiB time=N/A bitrate=N/A speed=N/A elapsed=0:00:01.54    \nframe=    0 fps=0.0 q=0.0 size=       0KiB time=N/A bitrate=N/A speed=N/A elapsed=0:00:02.05    \nframe=    0 fps=0.0 q=0.0 size=       0KiB time=N/A bitrate=N/A speed=N/A elapsed=0:00:02.58    \nframe=    0 fps=0.0 q=0.0 size=       0KiB time=N/A bitrate=N/A speed=N/A elapsed=0:00:03.08    \nframe=    1 fps=0.3 q=13.0 size=       1KiB time=00:00:00.00 bitrate=N/A speed=   0x elapsed=0:00:03.60    \nframe=    4 fps=1.0 q=46.0 size=       1KiB time=00:00:00.05 bitrate= 113.9kbits/s speed=0.0121x elapsed=0:00:04.12    \nframe=   11 fps=2.4 q=42.0 size=       1KiB time=00:00:00.16 bitrate=  34.2kbits/s speed=0.036x elapsed=0:00:04.63    \nframe=   21 fps=4.1 q=41.0 size=       1KiB time=00:00:00.33 bitrate=  17.1kbits/s speed=0.0647x elapsed=0:00:05.15    \nframe=   28 fps=4.9 q=34.0 size=       1KiB time=00:00:00.45 bitrate=  12.7kbits/s speed=0.0793x elapsed=0:00:05.67    \nframe=   35 fps=5.6 q=34.0 size=       1KiB time=00:00:00.55 bitrate=  10.4kbits/s speed=0.0888x elapsed=0:00:06.19    \nframe=   38 fps=5.7 q=30.0 size=       1KiB time=00:00:00.61 bitrate=   9.2kbits/s speed=0.0918x elapsed=0:00:06.72    \nframe=   43 fps=5.9 q=37.0 size=       1KiB time=00:00:00.70 bitrate=   8.1kbits/s speed=0.0967x elapsed=0:00:07.23    \nframe=   48 fps=6.2 q=37.0 size=       1KiB time=00:00:00.78 bitrate=   7.3kbits/s speed=0.101x elapsed=0:00:07.78    \nframe=   53 fps=6.4 q=40.0 size=       1KiB time=00:00:00.86 bitrate=   6.6kbits/s speed=0.105x elapsed=0:00:08.29    \nframe=   56 fps=6.4 q=38.0 size=       1KiB time=00:00:00.91 bitrate=   6.2kbits/s speed=0.104x elapsed=0:00:08.81    \nframe=   61 fps=6.5 q=37.0 size=       1KiB time=00:00:01.00 bitrate=   5.7kbits/s speed=0.107x elapsed=0:00:09.33    \nframe=   67 fps=6.8 q=41.0 size=       1KiB time=00:00:01.10 bitrate=   5.2kbits/s speed=0.111x elapsed=0:00:09.87    \nframe=   71 fps=6.8 q=38.0 size=       1KiB time=00:00:01.16 bitrate=   4.9kbits/s speed=0.112x elapsed=0:00:10.38    \nframe=   75 fps=6.9 q=40.0 size=       1KiB time=00:00:01.23 bitrate=   4.6kbits/s speed=0.113x elapsed=0:00:10.89    \nframe=   80 fps=7.0 q=37.0 size=       1KiB time=00:00:01.31 bitrate=   4.3kbits/s speed=0.115x elapsed=0:00:11.43    \nframe=   85 fps=7.1 q=39.0 size=       1KiB time=00:00:01.40 bitrate=   4.1kbits/s speed=0.117x elapsed=0:00:11.95    \nframe=   87 fps=7.0 q=37.0 size=       1KiB time=00:00:01.43 bitrate=   4.0kbits/s speed=0.115x elapsed=0:00:12.47    \nframe=   92 fps=7.1 q=36.0 size=       1KiB time=00:00:01.51 bitrate=   3.8kbits/s speed=0.117x elapsed=0:00:12.99    \nframe=  100 fps=7.4 q=37.0 size=       1KiB time=00:00:01.65 bitrate=   3.5kbits/s speed=0.122x elapsed=0:00:13.52    \nframe=  103 fps=7.3 q=41.0 size=       1KiB time=00:00:01.70 bitrate=   3.4kbits/s speed=0.121x elapsed=0:00:14.04    \nframe=  109 fps=7.5 q=37.0 size=       1KiB time=00:00:01.80 bitrate=   3.2kbits/s speed=0.123x elapsed=0:00:14.57    \nframe=  117 fps=7.7 q=40.0 size=       1KiB time=00:00:01.93 bitrate=   2.9kbits/s speed=0.128x elapsed=0:00:15.09    \nframe=  122 fps=7.8 q=39.0 size=       1KiB time=00:00:02.01 bitrate=   2.8kbits/s speed=0.129x elapsed=0:00:15.62    \nframe=  129 fps=8.0 q=15.0 size=       1KiB time=00:00:02.13 bitrate=   2.7kbits/s speed=0.132x elapsed=0:00:16.13    \nframe=  135 fps=8.1 q=41.0 size=       1KiB time=00:00:02.23 bitrate=   2.6kbits/s speed=0.134x elapsed=0:00:16.65    \nframe=  140 fps=8.2 q=39.0 size=       1KiB time=00:00:02.31 bitrate=   2.5kbits/s speed=0.135x elapsed=0:00:17.17    \nframe=  147 fps=8.3 q=40.0 size=       1KiB time=00:00:02.43 bitrate=   2.3kbits/s speed=0.137x elapsed=0:00:17.69    \nframe=  151 fps=8.3 q=41.0 size=       1KiB time=00:00:02.50 bitrate=   2.3kbits/s speed=0.137x elapsed=0:00:18.21    \nframe=  157 fps=8.4 q=40.0 size=       1KiB time=00:00:02.60 bitrate=   2.2kbits/s speed=0.139x elapsed=0:00:18.74    \nframe=  163 fps=8.4 q=41.0 size=       1KiB time=00:00:02.70 bitrate=   2.1kbits/s speed=0.14x elapsed=0:00:19.29    \nframe=  167 fps=8.4 q=40.0 size=       1KiB time=00:00:02.76 bitrate=   2.1kbits/s speed=0.14x elapsed=0:00:19.81    \nframe=  172 fps=8.5 q=44.0 size=       1KiB time=00:00:02.83 bitrate=   2.0kbits/s speed=0.139x elapsed=0:00:20.33    \nframe=  178 fps=8.5 q=45.0 size=       1KiB time=00:00:02.95 bitrate=   1.9kbits/s speed=0.141x elapsed=0:00:20.87    \nframe=  182 fps=8.5 q=43.0 size=       1KiB time=00:00:03.01 bitrate=   1.9kbits/s speed=0.141x elapsed=0:00:21.38    \nframe=  188 fps=8.6 q=45.0 size=       1KiB time=00:00:03.11 bitrate=   1.8kbits/s speed=0.142x elapsed=0:00:21.90    \nframe=  195 fps=8.7 q=44.0 size=       1KiB time=00:00:03.23 bitrate=   1.8kbits/s speed=0.144x elapsed=0:00:22.41    \nframe=  199 fps=8.7 q=40.0 size=       1KiB time=00:00:03.30 bitrate=   1.7kbits/s speed=0.144x elapsed=0:00:22.93    \nframe=  207 fps=8.8 q=42.0 size=       1KiB time=00:00:03.43 bitrate=   1.7kbits/s speed=0.146x elapsed=0:00:23.45    \nframe=  213 fps=8.9 q=42.0 size=       1KiB time=00:00:03.53 bitrate=   1.6kbits/s speed=0.147x elapsed=0:00:23.96    \nframe=  219 fps=8.9 q=43.0 size=       1KiB time=00:00:03.63 bitrate=   1.6kbits/s speed=0.148x elapsed=0:00:24.48    \nframe=  225 fps=9.0 q=28.0 size=       1KiB time=00:00:03.73 bitrate=   1.5kbits/s speed=0.149x elapsed=0:00:25.00    \nframe=  233 fps=9.1 q=38.0 size=       1KiB time=00:00:03.86 bitrate=   1.5kbits/s speed=0.152x elapsed=0:00:25.51    \nframe=  237 fps=9.1 q=40.0 size=       1KiB time=00:00:03.93 bitrate=   1.4kbits/s speed=0.151x elapsed=0:00:26.03    \nframe=  243 fps=9.1 q=45.0 size=       1KiB time=00:00:04.03 bitrate=   1.4kbits/s speed=0.152x elapsed=0:00:26.55    \nframe=  249 fps=9.2 q=38.0 size=       1KiB time=00:00:04.13 bitrate=   1.4kbits/s speed=0.153x elapsed=0:00:27.08    \nframe=  253 fps=9.2 q=40.0 size=       1KiB time=00:00:04.20 bitrate=   1.4kbits/s speed=0.152x elapsed=0:00:27.59    \nframe=  261 fps=9.3 q=42.0 size=       1KiB time=00:00:04.33 bitrate=   1.3kbits/s speed=0.154x elapsed=0:00:28.10    \nframe=  265 fps=9.3 q=37.0 size=       1KiB time=00:00:04.40 bitrate=   1.3kbits/s speed=0.154x elapsed=0:00:28.62    \nframe=  271 fps=9.3 q=47.0 size=       1KiB time=00:00:04.50 bitrate=   1.3kbits/s speed=0.154x elapsed=0:00:29.15    \nframe=  277 fps=9.3 q=45.0 size=       1KiB time=00:00:04.60 bitrate=   1.2kbits/s speed=0.155x elapsed=0:00:29.69    \nframe=  281 fps=9.3 q=43.0 size=       1KiB time=00:00:04.66 bitrate=   1.2kbits/s speed=0.154x elapsed=0:00:30.24    \nframe=  287 fps=9.3 q=47.0 size=       1KiB time=00:00:04.76 bitrate=   1.2kbits/s speed=0.155x elapsed=0:00:30.78    \n[out#0/matroska @ 000001ff3f8997c0] video:611KiB audio:0KiB subtitle:0KiB other streams:0KiB global headers:0KiB muxing overhead: 0.339111%\nframe=  300 fps=9.6 q=47.0 Lsize=     613KiB time=00:00:04.98 bitrate=1007.0kbits/s speed=0.16x elapsed=0:00:31.11    \n",
  "seconds": 32.08341908454895,
  "probe_out": {}
}